<svg width="40" height="40" viewBox="0 0 40 40" fill="none" xmlns="http://www.w3.org/2000/svg">
<path d="M24.8483 34.5748V21.4812C24.8483 21.0471 24.6759 20.6308 24.3689 20.3239C24.062 20.0169 23.6457 19.8445 23.2116 19.8445H16.6648C16.2307 19.8445 15.8144 20.0169 15.5075 20.3239C15.2005 20.6308 15.0281 21.0471 15.0281 21.4812V34.5748" stroke="black" stroke-width="3.27341" stroke-linecap="round" stroke-linejoin="round"/>
<path d="M5.20776 16.5711C5.20765 16.0949 5.31142 15.6244 5.51184 15.1925C5.71226 14.7606 6.00451 14.3775 6.36819 14.0702L17.8251 4.25158C18.416 3.75224 19.1645 3.47827 19.9381 3.47827C20.7117 3.47827 21.4603 3.75224 22.0511 4.25158L33.508 14.0702C33.8717 14.3775 34.164 14.7606 34.3644 15.1925C34.5648 15.6244 34.6686 16.0949 34.6685 16.5711V31.3014C34.6685 32.1696 34.3236 33.0022 33.7097 33.6161C33.0958 34.2299 32.2632 34.5748 31.3951 34.5748H8.48118C7.61301 34.5748 6.78041 34.2299 6.16652 33.6161C5.55264 33.0022 5.20776 32.1696 5.20776 31.3014V16.5711Z" stroke="black" stroke-width="3.27341" stroke-linecap="round" stroke-linejoin="round"/>
</svg>
