<svg width="40" height="40" viewBox="0 0 40 40" fill="none" xmlns="http://www.w3.org/2000/svg">
<path d="M15.028 5.37158H6.84447C5.94054 5.37158 5.20776 6.10436 5.20776 7.00829V18.4652C5.20776 19.3692 5.94054 20.1019 6.84447 20.1019H15.028C15.9319 20.1019 16.6647 19.3692 16.6647 18.4652V7.00829C16.6647 6.10436 15.9319 5.37158 15.028 5.37158Z" stroke="black" stroke-width="3.27341" stroke-linecap="round" stroke-linejoin="round"/>
<path d="M33.0317 5.37158H24.8481C23.9442 5.37158 23.2114 6.10436 23.2114 7.00829V11.9184C23.2114 12.8223 23.9442 13.5551 24.8481 13.5551H33.0317C33.9356 13.5551 34.6684 12.8223 34.6684 11.9184V7.00829C34.6684 6.10436 33.9356 5.37158 33.0317 5.37158Z" stroke="black" stroke-width="3.27341" stroke-linecap="round" stroke-linejoin="round"/>
<path d="M33.0317 20.1021H24.8481C23.9442 20.1021 23.2114 20.8348 23.2114 21.7388V33.1957C23.2114 34.0996 23.9442 34.8324 24.8481 34.8324H33.0317C33.9356 34.8324 34.6684 34.0996 34.6684 33.1957V21.7388C34.6684 20.8348 33.9356 20.1021 33.0317 20.1021Z" stroke="black" stroke-width="3.27341" stroke-linecap="round" stroke-linejoin="round"/>
<path d="M15.028 26.6489H6.84447C5.94054 26.6489 5.20776 27.3817 5.20776 28.2856V33.1957C5.20776 34.0997 5.94054 34.8325 6.84447 34.8325H15.028C15.9319 34.8325 16.6647 34.0997 16.6647 33.1957V28.2856C16.6647 27.3817 15.9319 26.6489 15.028 26.6489Z" stroke="black" stroke-width="3.27341" stroke-linecap="round" stroke-linejoin="round"/>
</svg>
