<svg width="56" height="56" viewBox="0 0 56 56" fill="none" xmlns="http://www.w3.org/2000/svg">
<path d="M13.9993 32.6667H21.116L32.7827 21.0001C33.1327 20.6501 33.3952 20.2515 33.5702 19.8042C33.7452 19.357 33.8327 18.9195 33.8327 18.4917C33.8327 18.064 33.7355 17.6459 33.541 17.2376C33.3466 16.8292 33.0938 16.4501 32.7827 16.1001L30.6827 13.8834C30.3327 13.5334 29.9438 13.2709 29.516 13.0959C29.0882 12.9209 28.641 12.8334 28.1743 12.8334C27.7466 12.8334 27.3091 12.9209 26.8618 13.0959C26.4146 13.2709 26.016 13.5334 25.666 13.8834L13.9993 25.5501V32.6667ZM17.4993 29.1667V26.9501L23.391 21.0584L24.5577 22.1084L25.6077 23.2751L19.716 29.1667H17.4993ZM24.5577 22.1084L25.6077 23.2751L23.391 21.0584L24.5577 22.1084ZM26.0743 32.6667H41.9993V28.0001H30.741L26.0743 32.6667ZM4.66602 51.3334V9.33341C4.66602 8.05008 5.12296 6.95147 6.03685 6.03758C6.95074 5.12369 8.04935 4.66675 9.33268 4.66675H46.666C47.9493 4.66675 49.048 5.12369 49.9618 6.03758C50.8757 6.95147 51.3327 8.05008 51.3327 9.33341V37.3334C51.3327 38.6167 50.8757 39.7154 49.9618 40.6292C49.048 41.5431 47.9493 42.0001 46.666 42.0001H13.9993L4.66602 51.3334ZM12.016 37.3334H46.666V9.33341H9.33268V39.9584L12.016 37.3334Z" fill="black"/>
</svg>
