<svg xmlns="http://www.w3.org/2000/svg" xmlns:xlink="http://www.w3.org/1999/xlink" width="500" zoomAndPan="magnify" viewBox="0 0 375 374.999991" height="500" preserveAspectRatio="xMidYMid meet" version="1.0"><defs><clipPath id="51b0448f3e"><path d="M 103.566406 43.207031 L 270.816406 43.207031 L 270.816406 282.457031 L 103.566406 282.457031 Z M 103.566406 43.207031 " clip-rule="nonzero"/></clipPath><clipPath id="1c95b00bff"><path d="M 115.867188 19.992188 L 258.613281 19.992188 L 258.613281 162.738281 L 115.867188 162.738281 Z M 115.867188 19.992188 " clip-rule="nonzero"/></clipPath><clipPath id="fb2339b912"><path d="M 187.238281 19.992188 C 147.820312 19.992188 115.867188 51.945312 115.867188 91.363281 C 115.867188 130.78125 147.820312 162.738281 187.238281 162.738281 C 226.65625 162.738281 258.613281 130.78125 258.613281 91.363281 C 258.613281 51.945312 226.65625 19.992188 187.238281 19.992188 Z M 187.238281 19.992188 " clip-rule="nonzero"/></clipPath><clipPath id="7c06f47d30"><path d="M 183.835938 131.1875 L 190.339844 131.1875 L 190.339844 206.796875 L 183.835938 206.796875 Z M 183.835938 131.1875 " clip-rule="nonzero"/></clipPath><clipPath id="09ed8d8cd4"><path d="M 187.089844 131.1875 C 188.882812 131.1875 190.339844 132.640625 190.339844 134.4375 L 190.339844 203.519531 C 190.339844 205.316406 188.882812 206.769531 187.089844 206.769531 C 185.292969 206.769531 183.835938 205.316406 183.835938 203.519531 L 183.835938 134.4375 C 183.835938 132.640625 185.292969 131.1875 187.089844 131.1875 Z M 187.089844 131.1875 " clip-rule="nonzero"/></clipPath><clipPath id="176d5715fa"><path d="M 137 114 L 166 114 L 166 134 L 137 134 Z M 137 114 " clip-rule="nonzero"/></clipPath><clipPath id="05eba24f43"><path d="M 141.796875 108.414062 L 169.675781 123.84375 L 160.832031 139.816406 L 132.953125 124.382812 Z M 141.796875 108.414062 " clip-rule="nonzero"/></clipPath><clipPath id="9c3ec266c8"><path d="M 159.164062 119.421875 L 165.144531 128.882812 C 165.703125 129.773438 165.738281 130.898438 165.226562 131.816406 C 164.71875 132.738281 163.75 133.304688 162.699219 133.300781 L 151.503906 133.257812 C 148.234375 133.246094 145.195312 131.5625 143.449219 128.800781 L 137.46875 119.335938 C 136.90625 118.449219 136.875 117.324219 137.382812 116.402344 C 137.894531 115.484375 138.863281 114.914062 139.914062 114.917969 L 151.109375 114.964844 C 154.378906 114.976562 157.417969 116.65625 159.164062 119.421875 Z M 159.164062 119.421875 " clip-rule="nonzero"/></clipPath><clipPath id="eb16ae44df"><path d="M 208 114 L 238 114 L 238 134 L 208 134 Z M 208 114 " clip-rule="nonzero"/></clipPath><clipPath id="48c39f6e49"><path d="M 204.816406 123.917969 L 232.652344 108.40625 L 241.539062 124.355469 L 213.703125 139.867188 Z M 204.816406 123.917969 " clip-rule="nonzero"/></clipPath><clipPath id="5de73ef1ba"><path d="M 223.34375 114.992188 L 234.535156 114.917969 C 235.589844 114.910156 236.558594 115.476562 237.070312 116.394531 C 237.582031 117.3125 237.554688 118.4375 236.996094 119.328125 L 231.042969 128.808594 C 229.300781 131.578125 226.269531 133.265625 223 133.289062 L 211.804688 133.363281 C 210.753906 133.371094 209.78125 132.804688 209.269531 131.886719 C 208.757812 130.96875 208.789062 129.84375 209.347656 128.953125 L 215.300781 119.476562 C 217.039062 116.707031 220.074219 115.015625 223.34375 114.992188 Z M 223.34375 114.992188 " clip-rule="nonzero"/></clipPath><clipPath id="0e67041ff2"><path d="M 183 202 L 189 202 L 189 210 L 183 210 Z M 183 202 " clip-rule="nonzero"/></clipPath><clipPath id="2fb56339be"><path d="M 184.011719 202.953125 L 188.964844 205.210938 L 186.332031 210.976562 L 181.382812 208.714844 Z M 184.011719 202.953125 " clip-rule="nonzero"/></clipPath><clipPath id="2760fce425"><path d="M 183.859375 209.839844 L 188.964844 205.210938 L 184.011719 202.953125 Z M 183.859375 209.839844 " clip-rule="nonzero"/></clipPath><clipPath id="b2e442260a"><path d="M 185 203 L 191 203 L 191 210 L 185 210 Z M 185 203 " clip-rule="nonzero"/></clipPath><clipPath id="09050fc089"><path d="M 185.238281 205.121094 L 190.265625 203.035156 L 192.691406 208.886719 L 187.664062 210.972656 Z M 185.238281 205.121094 " clip-rule="nonzero"/></clipPath><clipPath id="0ec714269d"><path d="M 190.175781 209.925781 L 190.265625 203.035156 L 185.238281 205.121094 Z M 190.175781 209.925781 " clip-rule="nonzero"/></clipPath></defs><g clip-path="url(#51b0448f3e)"><path fill="#900710" d="M 187.234375 43.210938 C 141.039062 43.210938 103.566406 80.679688 103.566406 126.875 C 103.566406 189.625 187.234375 282.253906 187.234375 282.253906 C 187.234375 282.253906 270.898438 189.625 270.898438 126.875 C 270.898438 80.679688 233.429688 43.210938 187.234375 43.210938 Z M 187.234375 156.757812 C 170.738281 156.757812 157.351562 143.371094 157.351562 126.875 C 157.351562 110.382812 170.738281 96.996094 187.234375 96.996094 C 203.726562 96.996094 217.113281 110.382812 217.113281 126.875 C 217.113281 143.371094 203.726562 156.757812 187.234375 156.757812 Z M 187.234375 156.757812 " fill-opacity="1" fill-rule="nonzero"/></g><g clip-path="url(#1c95b00bff)"><g clip-path="url(#fb2339b912)"><path fill="#ffffff" d="M 115.867188 19.992188 L 258.613281 19.992188 L 258.613281 162.738281 L 115.867188 162.738281 Z M 115.867188 19.992188 " fill-opacity="1" fill-rule="nonzero"/></g></g><g clip-path="url(#7c06f47d30)"><g clip-path="url(#09ed8d8cd4)"><path fill="#ffffff" d="M 183.835938 131.1875 L 190.339844 131.1875 L 190.339844 206.769531 L 183.835938 206.769531 Z M 183.835938 131.1875 " fill-opacity="1" fill-rule="nonzero"/></g></g><g clip-path="url(#176d5715fa)"><g clip-path="url(#05eba24f43)"><g clip-path="url(#9c3ec266c8)"><path fill="#900710" d="M 139.71875 105.773438 L 173.015625 124.203125 L 162.910156 142.457031 L 129.613281 124.023438 Z M 139.71875 105.773438 " fill-opacity="1" fill-rule="nonzero"/></g></g></g><g clip-path="url(#eb16ae44df)"><g clip-path="url(#48c39f6e49)"><g clip-path="url(#5de73ef1ba)"><path fill="#900710" d="M 201.476562 124.289062 L 234.722656 105.761719 L 244.878906 123.988281 L 211.632812 142.511719 Z M 201.476562 124.289062 " fill-opacity="1" fill-rule="nonzero"/></g></g></g><g clip-path="url(#0e67041ff2)"><g clip-path="url(#2fb56339be)"><g clip-path="url(#2760fce425)"><path fill="#ffffff" d="M 184.011719 202.953125 L 188.964844 205.210938 L 186.332031 210.976562 L 181.382812 208.714844 Z M 184.011719 202.953125 " fill-opacity="1" fill-rule="nonzero"/></g></g></g><g clip-path="url(#b2e442260a)"><g clip-path="url(#09050fc089)"><g clip-path="url(#0ec714269d)"><path fill="#ffffff" d="M 185.238281 205.121094 L 190.265625 203.035156 L 192.691406 208.886719 L 187.664062 210.972656 Z M 185.238281 205.121094 " fill-opacity="1" fill-rule="nonzero"/></g></g></g></svg>