<svg width="250" height="154" viewBox="0 0 250 154" fill="none" xmlns="http://www.w3.org/2000/svg">
<g clip-path="url(#clip0_334_34)">
<path d="M217.016 152.99C217.04 152.909 219.356 144.818 215.256 137.597L214.838 137.9C218.807 144.89 216.567 152.734 216.544 152.813L217.016 152.99Z" fill="#E4E4E4"/>
<path d="M212.325 138.636C212.413 139.109 212.583 139.557 212.825 139.956C213.067 140.355 213.376 140.696 213.735 140.96C214.094 141.223 214.495 141.405 214.916 141.494C215.336 141.583 215.769 141.577 216.188 141.477C216.607 141.378 217.004 141.186 217.357 140.913C217.71 140.639 218.012 140.29 218.246 139.886C218.48 139.481 218.641 139.028 218.719 138.553C218.798 138.077 218.793 137.59 218.705 137.117C218.333 135.128 215.183 130.178 213.422 130.597C211.66 131.017 211.953 136.647 212.325 138.636Z" fill="#E4E4E4"/>
<path d="M212.919 147.938C214.491 149.856 217.304 149.804 217.304 149.804C217.304 149.804 217.568 146.642 215.996 144.724C214.423 142.806 211.61 142.858 211.61 142.858C211.61 142.858 211.347 146.02 212.919 147.938Z" fill="#E4E4E4"/>
<path d="M236.75 153.552C236.806 153.361 242.273 134.265 232.597 117.225L231.609 117.94C240.975 134.435 235.691 152.948 235.636 153.133L236.75 153.552Z" fill="#E4E4E4"/>
<path d="M225.679 119.676C226.1 121.929 227.298 123.901 229.007 125.159C230.716 126.416 232.798 126.855 234.794 126.38C236.79 125.904 238.538 124.554 239.652 122.624C240.766 120.695 241.156 118.345 240.735 116.091C239.858 111.398 232.425 99.7162 228.267 100.706C224.109 101.696 224.802 114.982 225.679 119.676Z" fill="#E4E4E4"/>
<path d="M227.081 141.628C230.791 146.155 237.43 146.032 237.43 146.032C237.43 146.032 238.052 138.57 234.341 134.043C230.63 129.517 223.992 129.64 223.992 129.64C223.992 129.64 223.37 137.101 227.081 141.628Z" fill="#E4E4E4"/>
<path d="M144.222 152.114L140.594 150.389L138.105 129.858H104.963L102.266 150.305L99.0198 152.137C98.8645 152.225 98.74 152.369 98.6664 152.547C98.5928 152.724 98.5745 152.925 98.6144 153.116C98.6543 153.306 98.7501 153.476 98.8862 153.598C99.0224 153.72 99.1909 153.786 99.3645 153.786H143.923C144.1 153.786 144.273 153.716 144.411 153.589C144.548 153.462 144.643 153.285 144.678 153.088C144.713 152.891 144.687 152.686 144.604 152.509C144.521 152.331 144.386 152.192 144.222 152.114Z" fill="#E6E6E6"/>
<path d="M203.118 132.59H40.3158C39.4617 132.588 38.6431 132.203 38.0398 131.52C37.4365 130.838 37.0977 129.913 37.0977 128.949V103.032H206.336V128.949C206.336 129.913 205.997 130.838 205.394 131.52C204.79 132.203 203.972 132.588 203.118 132.59Z" fill="#CCCCCC"/>
<path d="M206.506 115.281H36.9492V4.38936C36.9504 3.22561 37.3605 2.10992 38.0894 1.28704C38.8183 0.464166 39.8066 0.0013044 40.8375 0H202.618C203.649 0.00130363 204.637 0.464163 205.366 1.28704C206.095 2.10992 206.505 3.22561 206.506 4.38936V115.281Z" fill="#3F3D56"/>
<path d="M196.38 8.04828H47.0759C46.2812 8.0494 45.5194 8.40647 44.9577 9.04109C44.396 9.6757 44.0804 10.536 44.0801 11.4331V103.848C44.0804 104.745 44.396 105.605 44.9577 106.24C45.5194 106.875 46.2812 107.232 47.0759 107.233H196.38C197.175 107.231 197.936 106.874 198.498 106.24C199.06 105.605 199.376 104.745 199.376 103.848V11.4331C199.376 10.5361 199.06 9.6761 198.498 9.04159C197.936 8.40707 197.175 8.04986 196.38 8.04828Z" fill="white"/>
<path d="M73.5412 8.04828V107.233H47.0759C46.2812 107.232 45.5194 106.875 44.9577 106.24C44.396 105.605 44.0804 104.745 44.0801 103.848V11.4331C44.0804 10.536 44.396 9.6757 44.9577 9.04109C45.5194 8.40647 46.2812 8.0494 47.0759 8.04828H73.5412Z" fill="#F0F0F0"/>
<path d="M51.7064 58.1531C51.4085 58.0765 51.0993 58.0746 50.8007 58.1476C50.5021 58.2205 50.2212 58.3664 49.978 58.5751C49.7347 58.7838 49.535 59.0502 49.3928 59.3554C49.2506 59.6607 49.1694 59.9975 49.1549 60.342L42.0312 62.7129L44.9803 65.5234L51.2929 62.8411C51.8072 62.8301 52.3001 62.6065 52.6782 62.2127C53.0562 61.8189 53.2932 61.2823 53.3442 60.7044C53.3951 60.1265 53.2566 59.5476 52.9547 59.0774C52.6529 58.6072 52.2087 58.2783 51.7064 58.1531Z" fill="#FFB6B6"/>
<path d="M22.9247 75.9962C22.2204 75.9952 21.5394 75.7118 21.003 75.1966C20.4666 74.6815 20.1097 73.9679 19.996 73.1833C19.8823 72.3987 20.0192 71.594 20.3821 70.9127C20.7451 70.2314 21.3107 69.7178 21.9779 69.4635L36.4136 63.9624L47.6741 59.3314L49.0559 64.7918L39.1152 72.1864L23.546 75.9224C23.3417 75.9714 23.1335 75.9962 22.9247 75.9962Z" fill="#900710"/>
<path d="M31.9575 151.221H33.9843L34.9486 142.395H31.957L31.9575 151.221Z" fill="#FFB6B6"/>
<path d="M31.4395 150.474L35.4311 150.473C36.1057 150.473 36.7528 150.776 37.2299 151.315C37.7069 151.853 37.9749 152.583 37.975 153.345V153.438L31.4396 153.439L31.4395 150.474Z" fill="#2F2E41"/>
<path d="M16.4163 151.221H18.443L19.4074 142.395H16.416L16.4163 151.221Z" fill="#FFB6B6"/>
<path d="M15.9004 150.474L19.892 150.473C20.5666 150.473 21.2138 150.776 21.6908 151.315C22.1678 151.853 22.4359 152.583 22.4359 153.345V153.438L15.9005 153.439L15.9004 150.474Z" fill="#2F2E41"/>
<path d="M16.3975 98.2826C15.4699 100.722 15.2669 103.434 15.8189 106.015L15.2402 149.794H19.6916L22.1839 125.718L26.317 109.854L30.7807 122.172V147.845L35.0792 147.555L37.3937 120.306L34.7485 100.896L16.3975 98.2826Z" fill="#2F2E41"/>
<path d="M32.6814 64.2215L28.879 62.915L27.887 60.6754H23.0028L21.77 63.1017C21.77 63.1017 16.8103 65.1547 16.645 75.0464C16.4797 84.9381 15.8184 100.802 15.8184 100.802L35.3748 103.95L32.6814 64.2215Z" fill="#900710"/>
<path d="M38.2962 102.178C38.4245 101.865 38.4904 101.524 38.4893 101.179C38.4882 100.834 38.4201 100.494 38.2899 100.182C38.1597 99.8699 37.9704 99.5939 37.7355 99.3734C37.5005 99.1529 37.2256 98.9933 36.9301 98.9057L36.3569 90.5465L33.3086 93.2186L34.3203 100.747C34.2228 101.317 34.3141 101.908 34.5767 102.407C34.8393 102.907 35.255 103.28 35.7451 103.456C36.2352 103.633 36.7656 103.6 37.2358 103.364C37.7059 103.129 38.0832 102.707 38.2962 102.178Z" fill="#FFB6B6"/>
<path d="M33.0943 97.8699L28.7539 85.3556V67.3865C28.7539 66.5306 29.0437 65.7071 29.564 65.0846C30.0843 64.4621 30.7957 64.0877 31.5526 64.038C32.3095 63.9883 33.0545 64.2672 33.6352 64.8174C34.2159 65.3677 34.5883 66.1477 34.6762 66.9979L36.4414 84.0822L38.1127 97.479L33.0943 97.8699Z" fill="#900710"/>
<path d="M26.381 57.7702C29.0766 57.7702 31.2619 55.3033 31.2619 52.2601C31.2619 49.2169 29.0766 46.7499 26.381 46.7499C23.6853 46.7499 21.5 49.2169 21.5 52.2601C21.5 55.3033 23.6853 57.7702 26.381 57.7702Z" fill="#FFB9B9"/>
<path d="M26.7011 50.5851C26.4728 50.916 26.1597 51.2148 26.1094 51.6304C26.0722 51.9384 26.1914 52.2428 26.2027 52.5534C26.2036 52.8668 26.0986 53.1688 25.9092 53.3979C25.7197 53.627 25.4599 53.7659 25.1829 53.7863C24.9899 53.5122 24.711 53.3322 24.4039 53.2834C24.251 53.2639 24.0966 53.3002 23.9634 53.3871C23.8302 53.474 23.7252 53.6068 23.6638 53.7661C23.5189 54.2283 23.8544 54.6979 23.9083 55.1844C23.9155 55.5443 23.8639 55.9026 23.7562 56.2415C23.6325 56.7997 23.5994 57.3904 23.3825 57.9111C23.1655 58.4318 22.683 58.8796 22.1836 58.7646C21.7636 58.6678 21.4794 58.2086 21.362 57.7432C21.2445 57.2779 21.2498 56.7845 21.1648 56.3102C20.8886 54.7691 19.7136 53.6274 19.2526 52.1437C18.6619 50.2426 19.3715 48.0681 20.5945 46.6009C21.089 45.9581 21.7344 45.4863 22.4563 45.2401C23.2185 45.021 24.0243 45.1785 24.8063 45.0848C25.6427 44.9846 26.4288 44.6009 27.2416 44.3571C28.0545 44.1132 28.9623 44.0214 29.7012 44.475C30.2165 44.7914 30.5897 45.337 31.0698 45.7175C31.6202 46.1503 32.2876 46.352 32.9559 46.2874L32.1578 46.6812C32.4633 46.9977 32.8322 47.2259 33.233 47.346C32.9068 47.6379 32.5034 47.7978 32.0872 47.8001C32.174 47.9767 32.2919 48.1313 32.4337 48.2544C32.5755 48.3775 32.7382 48.4665 32.9116 48.5158C32.3056 48.837 31.6622 49.166 30.9958 49.0936C30.6693 49.0581 30.3573 48.9271 30.0349 48.8597C29.3475 48.716 28.6417 48.865 27.9552 49.0136C27.5947 49.0917 27.1522 49.1666 26.9702 49.5579C26.8186 49.8838 26.9345 50.2469 26.7011 50.5851Z" fill="#2F2E41"/>
<path d="M58.8101 66.431C63.1106 66.431 66.5968 62.4954 66.5968 57.6406C66.5968 52.7857 63.1106 48.8501 58.8101 48.8501C54.5097 48.8501 51.0234 52.7857 51.0234 57.6406C51.0234 62.4954 54.5097 66.431 58.8101 66.431Z" fill="#900710"/>
<path d="M63.4807 57.6407H59.2761V52.8938H58.3416V57.6407H54.1367V58.6954H58.3416V63.4424H59.2761V58.6954H63.4807V57.6407Z" fill="white"/>
<path d="M125.119 19.649C124.878 19.6493 124.648 19.7571 124.478 19.9488C124.309 20.1405 124.213 20.4004 124.213 20.6715V37.7915C124.213 38.0626 124.309 38.3225 124.478 38.5142C124.648 38.7059 124.878 38.8138 125.119 38.8141H186.254C186.494 38.8138 186.725 38.7059 186.894 38.5142C187.064 38.3225 187.16 38.0626 187.16 37.7915V20.6715C187.16 20.4004 187.064 20.1405 186.894 19.9488C186.725 19.7571 186.494 19.6493 186.254 19.649H125.119Z" fill="white"/>
<path d="M125.119 19.649C124.878 19.6493 124.648 19.7571 124.478 19.9488C124.309 20.1405 124.213 20.4004 124.213 20.6715V37.7915C124.213 38.0626 124.309 38.3225 124.478 38.5142C124.648 38.7059 124.878 38.8138 125.119 38.8141H186.254C186.494 38.8138 186.725 38.7059 186.894 38.5142C187.064 38.3225 187.16 38.0626 187.16 37.7915V20.6715C187.16 20.4004 187.064 20.1405 186.894 19.9488C186.725 19.7571 186.494 19.6493 186.254 19.649H125.119Z" fill="#E6E6E6"/>
<path d="M125.23 37.6638H186.14V20.7993H125.23V37.6638Z" fill="white"/>
<path d="M132.156 25.6529C131.946 25.6529 131.744 25.7471 131.595 25.9149C131.447 26.0827 131.363 26.3103 131.363 26.5476C131.363 26.7848 131.447 27.0124 131.595 27.1802C131.744 27.348 131.946 27.4422 132.156 27.4422H179.212C179.317 27.4423 179.42 27.4192 179.516 27.3743C179.612 27.3293 179.699 27.2635 179.773 27.1804C179.847 27.0974 179.905 26.9988 179.945 26.8903C179.985 26.7818 180.005 26.6654 180.005 26.5479C180.005 26.4304 179.985 26.3141 179.945 26.2055C179.905 26.097 179.847 25.9983 179.773 25.9152C179.7 25.8321 179.613 25.7661 179.516 25.7211C179.42 25.6761 179.317 25.6529 179.213 25.6529H132.156Z" fill="#E4E4E4"/>
<path d="M132.156 31.0209C131.946 31.0213 131.745 31.1157 131.597 31.2835C131.449 31.4512 131.365 31.6785 131.365 31.9155C131.365 32.1525 131.449 32.3799 131.597 32.5476C131.745 32.7153 131.946 32.8098 132.156 32.8102H179.213C179.423 32.8107 179.625 32.717 179.774 32.5496C179.923 32.3821 180.007 32.1548 180.007 31.9175C180.008 31.6802 179.925 31.4525 179.776 31.2843C179.628 31.1162 179.427 31.0214 179.217 31.0209H132.156Z" fill="#E4E4E4"/>
<path d="M82.6049 48.6979C82.3648 48.6982 82.1346 48.806 81.9648 48.9977C81.795 49.1894 81.6995 49.4493 81.6992 49.7203V66.8404C81.6995 67.1115 81.795 67.3714 81.9648 67.5631C82.1346 67.7548 82.3648 67.8627 82.6049 67.863H143.741C143.981 67.8627 144.211 67.7548 144.381 67.5631C144.55 67.3714 144.646 67.1115 144.646 66.8404V49.7203C144.646 49.4493 144.55 49.1894 144.381 48.9977C144.211 48.806 143.981 48.6982 143.741 48.6979H82.6049Z" fill="white"/>
<path d="M82.6049 48.6979C82.3648 48.6982 82.1346 48.806 81.9648 48.9977C81.795 49.1894 81.6995 49.4493 81.6992 49.7203V66.8404C81.6995 67.1115 81.795 67.3714 81.9648 67.5631C82.1346 67.7548 82.3648 67.8627 82.6049 67.863H143.741C143.981 67.8627 144.211 67.7548 144.381 67.5631C144.55 67.3714 144.646 67.1115 144.646 66.8404V49.7203C144.646 49.4493 144.55 49.1894 144.381 48.9977C144.211 48.806 143.981 48.6982 143.741 48.6979H82.6049Z" fill="#E6E6E6"/>
<path d="M82.7168 66.7127H143.626V49.8482H82.7168V66.7127Z" fill="white"/>
<path d="M89.6421 54.7018C89.4319 54.7018 89.2303 54.796 89.0817 54.9638C88.9331 55.1316 88.8496 55.3592 88.8496 55.5964C88.8496 55.8337 88.9331 56.0613 89.0817 56.2291C89.2303 56.3968 89.4319 56.4911 89.6421 56.4911H136.699C136.803 56.4911 136.906 56.4681 137.002 56.4231C137.098 56.3782 137.186 56.3124 137.259 56.2293C137.333 56.1463 137.391 56.0477 137.431 55.9392C137.471 55.8306 137.492 55.7143 137.492 55.5968C137.492 55.4793 137.471 55.363 137.431 55.2544C137.392 55.1459 137.333 55.0472 137.26 54.9641C137.186 54.881 137.099 54.815 137.003 54.77C136.907 54.725 136.804 54.7018 136.699 54.7018H89.6421Z" fill="#E4E4E4"/>
<path d="M89.6427 60.0698C89.4327 60.0702 89.2315 60.1647 89.0832 60.3324C88.9349 60.5002 88.8516 60.7275 88.8516 60.9645C88.8516 61.2015 88.9349 61.4288 89.0832 61.5965C89.2315 61.7643 89.4327 61.8587 89.6427 61.8591H136.699C136.91 61.8597 137.111 61.7659 137.26 61.5985C137.409 61.4311 137.493 61.2038 137.494 60.9665C137.494 60.7292 137.411 60.5014 137.263 60.3333C137.114 60.1651 136.913 60.0704 136.703 60.0698H89.6427Z" fill="#E4E4E4"/>
<path d="M157.124 94.6466C157.396 94.6128 157.658 94.5119 157.892 94.3512C158.126 94.1905 158.326 93.9738 158.478 93.7164C158.63 93.459 158.73 93.1672 158.771 92.8614C158.812 92.5557 158.793 92.2435 158.716 91.9469L164.134 87.5779L160.905 86.1743L156.255 90.5384C155.822 90.7181 155.463 91.0708 155.245 91.5296C155.027 91.9885 154.966 92.5217 155.073 93.028C155.18 93.5344 155.448 93.9789 155.826 94.2772C156.204 94.5755 156.666 94.707 157.124 94.6466Z" fill="#FFB7B7"/>
<path d="M160.131 91.7691L158.334 88.3035L158.372 88.2543L165.624 78.9338L171.255 68.0936L176.144 68.7971L176.217 70.4656L176.202 70.4905L168.434 83.6733L168.425 83.6813L160.131 91.7691Z" fill="#3F3D56"/>
<path d="M184.092 150.413L181.327 150.413L180.012 138.372L184.093 138.373L184.092 150.413Z" fill="#FFB7B7"/>
<path d="M184.799 153.439L175.883 153.438V153.311C175.883 152.272 176.249 151.276 176.899 150.541C177.55 149.806 178.433 149.393 179.353 149.393L184.799 149.394L184.799 153.439Z" fill="#2F2E41"/>
<path d="M160.295 150.311L157.605 149.586L158.803 137.53L162.772 138.6L160.295 150.311Z" fill="#FFB7B7"/>
<path d="M160.36 153.439L151.688 151.101L151.714 150.977C151.927 149.967 152.488 149.093 153.272 148.549C154.056 148.005 155 147.835 155.895 148.076L161.192 149.504L160.36 153.439Z" fill="#2F2E41"/>
<path d="M171.041 62.589V57.3346C171.041 55.4672 171.698 53.6763 172.868 52.3559C174.037 51.0355 175.624 50.2937 177.278 50.2937C178.932 50.2937 180.518 51.0355 181.688 52.3559C182.858 53.6763 183.515 55.4672 183.515 57.3346V62.589C183.515 62.8397 183.426 63.0801 183.269 63.2574C183.112 63.4347 182.899 63.5345 182.677 63.5347H171.879C171.657 63.5345 171.444 63.4347 171.287 63.2574C171.13 63.0801 171.041 62.8397 171.041 62.589Z" fill="#2F2E41"/>
<path d="M175.739 63.4549C178.264 63.4549 180.311 61.1437 180.311 58.2927C180.311 55.4418 178.264 53.1306 175.739 53.1306C173.213 53.1306 171.166 55.4418 171.166 58.2927C171.166 61.1437 173.213 63.4549 175.739 63.4549Z" fill="#FFB7B7"/>
<path d="M169.566 57.7549C169.568 56.2783 170.088 54.8626 171.013 53.8184C171.938 52.7743 173.192 52.187 174.5 52.1853H175.431C176.739 52.187 177.993 52.7743 178.918 53.8185C179.843 54.8626 180.363 56.2783 180.365 57.7549V57.86H178.397L177.726 55.739L177.592 57.86H176.575L176.237 56.7899L176.169 57.86H169.566V57.7549Z" fill="#2F2E41"/>
<path d="M178.407 85.538L166.764 85.0378L166.113 76.439C165.611 74.8651 165.603 73.5137 166.089 72.4226C166.507 71.5263 167.209 70.8412 168.055 70.5041L170.603 67.0306C170.931 66.584 171.342 66.2253 171.808 65.9802C172.273 65.7352 172.781 65.6101 173.295 65.6138L179.914 65.6649C180.074 65.5565 181.041 65.0013 182.95 65.9354C185.02 66.9486 184.54 70.4674 184.534 70.5027L184.53 70.5358L184.507 70.5575L180.104 74.7433L178.407 85.538Z" fill="#3F3D56"/>
<path d="M166.856 84.1139L161.349 95.4489L157.174 147.018L161.891 148.644L170.242 108.304L179.933 147.499L185.588 147.659L181.737 102.427L178.372 84.9149L166.856 84.1139Z" fill="#2F2E41"/>
<path d="M131.215 75.7119C130.986 75.6286 130.738 75.651 130.524 75.7742C130.31 75.8975 130.148 76.1115 130.074 76.3692L125.397 92.655C125.324 92.913 125.343 93.1935 125.453 93.4349C125.562 93.6764 125.751 93.8591 125.98 93.943L184.136 115.226C184.364 115.309 184.613 115.287 184.827 115.163C185.041 115.04 185.202 114.826 185.277 114.568L189.953 98.2824C190.027 98.0245 190.007 97.744 189.898 97.5025C189.789 97.2611 189.599 97.0784 189.371 96.9945L131.215 75.7119Z" fill="white"/>
<path d="M131.215 75.7119C130.986 75.6286 130.738 75.651 130.524 75.7742C130.31 75.8975 130.148 76.1115 130.074 76.3692L125.397 92.655C125.324 92.913 125.343 93.1935 125.453 93.4349C125.562 93.6764 125.751 93.8591 125.98 93.943L184.136 115.226C184.364 115.309 184.613 115.287 184.827 115.163C185.041 115.04 185.202 114.826 185.277 114.568L189.953 98.2824C190.027 98.0245 190.007 97.744 189.898 97.5025C189.789 97.2611 189.599 97.0784 189.371 96.9945L131.215 75.7119Z" fill="#E6E6E6"/>
<path d="M126.4 92.888L184.341 114.092L188.948 98.0492L131.007 76.8455L126.4 92.888Z" fill="white"/>
<path d="M136.269 83.8734C136.069 83.8004 135.852 83.82 135.664 83.9279C135.477 84.0357 135.336 84.2231 135.271 84.4487C135.206 84.6744 135.223 84.9198 135.319 85.1311C135.414 85.3424 135.58 85.5023 135.78 85.5755L180.544 101.957C180.643 101.993 180.747 102.007 180.851 101.998C180.955 101.989 181.056 101.957 181.149 101.904C181.242 101.85 181.324 101.777 181.392 101.687C181.459 101.598 181.511 101.494 181.543 101.383C181.575 101.271 181.587 101.153 181.579 101.036C181.571 100.918 181.542 100.804 181.495 100.7C181.448 100.595 181.382 100.502 181.303 100.425C181.224 100.349 181.132 100.291 181.033 100.255L181.032 100.255L136.269 83.8734Z" fill="#900710"/>
<path d="M134.803 88.9797C134.603 88.9071 134.386 88.9269 134.199 89.0349C134.012 89.1428 133.871 89.33 133.806 89.5554C133.741 89.7808 133.759 90.026 133.854 90.2372C133.949 90.4484 134.115 90.6083 134.314 90.6818L179.078 107.063C179.277 107.137 179.495 107.118 179.682 107.011C179.87 106.903 180.012 106.716 180.077 106.491C180.142 106.265 180.125 106.019 180.03 105.808C179.935 105.596 179.77 105.436 179.57 105.362L179.566 105.361L134.803 88.9797Z" fill="#900710"/>
<path d="M181.569 102.464C181.773 102.258 181.934 102.003 182.042 101.719C182.149 101.434 182.2 101.127 182.19 100.818C182.181 100.509 182.111 100.206 181.987 99.93C181.863 99.6545 181.686 99.4131 181.471 99.2228L183.621 92.1088L180.272 93.091L178.743 99.696C178.484 100.127 178.374 100.65 178.434 101.166C178.493 101.682 178.719 102.156 179.067 102.497C179.415 102.838 179.863 103.023 180.324 103.017C180.785 103.011 181.228 102.815 181.569 102.464Z" fill="#FFB7B7"/>
<path d="M182.53 98.1472L179.281 96.5122L180.373 84.1024L179.357 71.5886L183.694 68.9453L184.614 70.2541L184.615 70.2838L185.102 86.1076L185.099 86.1196L182.53 98.1472Z" fill="#3F3D56"/>
<path d="M249.621 154H79.7038C79.6179 154.002 79.5337 153.972 79.4645 153.914C79.3953 153.857 79.3449 153.775 79.3212 153.682C79.3063 153.618 79.3046 153.552 79.3161 153.487C79.3276 153.423 79.352 153.363 79.3875 153.311C79.423 153.259 79.4686 153.216 79.5207 153.187C79.5729 153.158 79.6303 153.143 79.6884 153.143H249.59C249.68 153.14 249.769 153.171 249.842 153.232C249.915 153.292 249.968 153.379 249.991 153.478C250.004 153.541 250.003 153.606 249.99 153.668C249.978 153.731 249.952 153.789 249.917 153.839C249.881 153.89 249.836 153.93 249.785 153.958C249.734 153.985 249.678 154 249.621 154Z" fill="#CCCCCC"/>
<path d="M57.1913 154H0.395205C0.309265 154.002 0.225135 153.972 0.155924 153.914C0.0867123 153.857 0.0363062 153.775 0.0125598 153.682C-0.00226532 153.618 -0.00399087 153.552 0.00751435 153.487C0.0190196 153.423 0.043448 153.363 0.0789231 153.311C0.114398 153.259 0.159972 153.216 0.212139 153.187C0.264306 153.158 0.321674 153.143 0.379829 153.143H57.1602C57.2509 153.14 57.3399 153.171 57.4129 153.232C57.4859 153.292 57.5384 153.379 57.562 153.478C57.5743 153.541 57.574 153.606 57.5611 153.668C57.5482 153.731 57.5231 153.789 57.4875 153.839C57.4519 153.89 57.4068 153.93 57.3556 153.958C57.3043 153.985 57.2482 154 57.1913 154Z" fill="#CCCCCC"/>
</g>
<defs>
<clipPath id="clip0_334_34">
<rect width="250" height="154" fill="white"/>
</clipPath>
</defs>
</svg>
