<svg width="199" height="140" viewBox="0 0 199 140" fill="none" xmlns="http://www.w3.org/2000/svg">
<g clip-path="url(#clip0_334_3)">
<path d="M120.667 42.1878C120.914 42.1983 121.16 42.1382 121.369 42.0157C121.578 41.8932 121.742 41.7142 121.838 41.5029C121.933 41.2916 121.956 41.0582 121.903 40.8344C121.851 40.6107 121.725 40.4072 121.543 40.2518C121.512 40.1398 121.491 40.0594 121.46 39.9475C121.471 39.9231 121.482 39.8988 121.493 39.8745C122.606 37.4224 126.377 37.4393 127.481 39.895C128.46 42.0746 129.707 44.2579 130.014 46.5624C130.149 47.581 130.092 48.6137 129.845 49.6143C132.146 44.9778 133.34 39.9384 133.348 34.8379C133.348 33.558 133.271 32.2791 133.117 31.0071C132.99 29.9644 132.813 28.929 132.587 27.9011C131.355 22.3238 128.708 17.0963 124.864 12.6479C123.003 11.7099 121.499 10.2675 120.553 8.51506C120.21 7.88512 119.968 7.21265 119.834 6.51859C120.044 6.54402 120.625 3.59062 120.467 3.40942C120.759 2.99933 121.283 2.79548 121.602 2.39531C123.191 0.405123 125.38 0.752622 126.522 3.45713C128.963 4.59543 128.986 6.48323 127.489 8.29886C126.536 9.45398 126.405 11.017 125.569 12.2536C125.655 12.3554 125.745 12.4539 125.831 12.5557C127.403 14.4239 128.773 16.4299 129.922 18.5451C129.597 16.1992 130.077 13.3729 130.895 11.5511C131.826 9.4753 133.571 7.72707 135.108 5.93255C136.955 3.77707 140.74 4.71776 141.066 7.45018C141.069 7.47664 141.072 7.50309 141.075 7.52952C140.847 7.64853 140.623 7.77485 140.404 7.90849C140.13 8.07808 139.917 8.32038 139.794 8.60366C139.671 8.88693 139.643 9.19797 139.715 9.49601C139.786 9.79404 139.953 10.0652 140.194 10.2739C140.435 10.4826 140.739 10.6192 141.066 10.6657L141.099 10.6705C141.018 11.4308 140.874 12.1843 140.669 12.9245C142.641 19.9708 138.384 22.5372 132.305 22.6525C132.171 22.716 132.04 22.7796 131.906 22.84C133.06 25.8624 133.784 29.0107 134.06 32.2056C134.216 34.0905 134.207 35.984 134.032 37.8676L134.043 37.8008C134.483 35.7063 135.692 33.8165 137.466 32.4504C140.1 30.4507 143.822 29.7144 146.664 28.1071C148.032 27.3333 149.785 28.3332 149.546 29.7988C149.543 29.8222 149.539 29.8456 149.535 29.869C149.111 30.0284 148.699 30.2121 148.3 30.419C148.071 30.538 147.848 30.6643 147.629 30.7979C147.355 30.9675 147.142 31.2098 147.019 31.4931C146.896 31.7764 146.868 32.0874 146.939 32.3854C147.011 32.6835 147.178 32.9546 147.419 33.1633C147.66 33.3721 147.964 33.5086 148.29 33.5551L148.324 33.5599C148.348 33.5631 148.369 33.5663 148.393 33.5695C147.669 35.1666 146.653 36.6366 145.389 37.9153C144.156 44.0664 138.861 44.65 133.196 42.8587H133.193C132.572 45.3543 131.671 47.7835 130.506 50.1071H120.907C120.873 50.0085 120.842 49.9068 120.811 49.8082C121.7 49.8598 122.591 49.8107 123.467 49.662C122.755 48.8545 122.043 48.0406 121.331 47.2332C121.315 47.2181 121.3 47.2021 121.286 47.1855C120.925 46.7722 120.56 46.3621 120.199 45.9488L120.198 45.9483C120.179 44.6815 120.337 43.4176 120.667 42.1879L120.667 42.1878Z" fill="#F2F2F2"/>
<path d="M151.486 19.4884C149.701 13.4756 164.096 8.31942 167.876 13.1616C168.402 12.4732 170.344 12.055 171.236 12.2662C172.127 12.4774 172.876 13.0053 173.608 13.5164C174.613 14.2302 175.655 14.9693 176.272 15.9956C176.894 17.0177 176.99 18.4114 176.154 19.2984C175.491 20.0037 173.535 20.4598 172.538 20.6457C171.844 20.7766 171.259 20.8822 170.756 20.9582C170.299 20.3502 170.089 19.613 170.162 18.876C169.823 19.087 169.539 19.3645 169.331 19.6887C169.122 20.0129 168.994 20.3758 168.955 20.7513C168.941 20.9075 174.572 40.0527 174.572 40.0527C173.896 40.4085 173.184 40.7041 172.447 40.9354C170.989 38.876 169.872 36.6268 169.133 34.2623C168.963 35.8434 168.985 37.437 169.197 39.0137C169.31 39.8979 169.472 40.7761 169.682 41.645C162.99 42.9796 152.926 42.5404 148.547 36.864C148.546 36.8405 148.545 36.817 148.545 36.7935C148.541 36.5694 148.454 36.3534 148.297 36.1825C148.14 36.0116 147.924 35.8963 147.685 35.8565C147.447 35.8167 147.2 35.8548 146.989 35.9643C146.777 36.0738 146.613 36.2478 146.525 36.4566C146.419 36.7071 146.321 36.9238 146.234 37.0963C144.959 32.8812 146.609 28.003 151.486 19.4884Z" fill="#2F2E41"/>
<path d="M140.098 120.296V120.493C140.09 120.428 140.09 120.361 140.098 120.296Z" fill="#2F2E41"/>
<path d="M146.652 86.2672C146.822 86.2247 146.996 86.1936 147.171 86.1742C146.97 86.2044 146.797 86.2355 146.652 86.2672Z" fill="#2F2E41"/>
<path d="M146.5 86.3032C146.546 86.2912 146.597 86.2792 146.652 86.2672C146.601 86.2795 146.552 86.2885 146.5 86.3032Z" fill="#2F2E41"/>
<path d="M194.913 139.999H170.386C170.036 139.741 169.793 139.38 169.697 138.976C169.601 138.571 169.659 138.149 169.86 137.78C170.531 136.36 169.218 135.062 169.218 135.062C168.772 134.58 168.462 134.003 168.315 133.383C168.169 132.763 168.19 132.12 168.377 131.509C169.027 129.412 166.48 123.492 166.48 123.492C166.48 123.492 165.107 131.136 163.425 139.999H140.098C139.708 139.384 139.502 138.684 139.502 137.971C139.502 137.257 139.708 136.557 140.098 135.942C141.458 133.812 140.098 133.404 140.098 133.404C140.098 133.404 138.739 131.02 140.098 129.29C141.458 127.559 140.098 120.493 140.098 120.493C140.15 120.805 140.537 120.237 141.133 119.046C142.041 117.234 143.428 113.976 144.83 110.193C145.832 107.493 146.842 104.522 147.686 101.617H147.688C147.909 100.854 148.119 100.098 148.317 99.3489C148.704 97.8795 149.036 96.4519 149.288 95.1113C149.835 92.2238 150.016 89.7434 149.596 88.1302C149.247 86.7877 148.485 86.0474 147.17 86.1743C147.875 86.0663 148.907 85.9641 150.18 85.8675C150.409 85.8505 150.647 85.8335 150.893 85.8145C160.384 85.1518 180.748 84.7712 180.748 84.7712L186.985 95.0924L194.884 108.167C194.884 108.167 194.669 125.706 194.913 139.999Z" fill="#2F2E41"/>
<path d="M168.734 40.1612L154.364 37.3445L151.511 42.6516L141.902 47.7919C141.902 47.7919 148.096 71.1927 148.061 74.4839C147.971 82.8397 133.502 101.571 144.431 100.13C155.36 98.689 157.58 92.6531 161.088 93.6075C164.252 94.4682 168.116 98.2973 170.702 95.5587C173.289 92.8202 174.2 95.9825 175.835 96.0918C176.612 96.1437 176.144 92.6338 178.1 96.2009C180.055 99.768 190.426 94.9663 186.911 91.7185C181.057 86.3094 179.868 46.4357 179.868 46.4357L173.351 44.583L168.734 40.1612Z" fill="#E6E6E6"/>
<path d="M141.631 125.143C142.208 124.507 142.494 123.687 142.428 122.859C142.361 122.031 141.948 121.26 141.275 120.709C141.137 120.599 140.988 120.5 140.832 120.413L143.235 109.516L137.68 106.444L136.135 121.7C135.794 122.327 135.686 123.041 135.829 123.73C135.973 124.42 136.359 125.046 136.928 125.511C137.255 125.773 137.634 125.972 138.044 126.099C138.454 126.225 138.887 126.276 139.318 126.248C139.75 126.219 140.171 126.113 140.557 125.934C140.944 125.756 141.289 125.508 141.572 125.207C141.592 125.186 141.611 125.164 141.631 125.143Z" fill="#A0616A"/>
<path d="M158.876 67.7074C158.841 67.3572 158.358 67.1981 157.688 66.9785C157.015 66.7869 156.375 66.507 155.788 66.1472C154.305 65.157 154.889 64.1213 155.696 62.6898C155.854 62.4115 156.018 62.1218 156.171 61.8207C156.628 60.9289 155.901 57.2499 154.005 50.8842C153.421 48.9245 153.424 47.5404 153.02 46.622C152.618 45.7037 151.813 45.2512 149.618 45.1565C146.966 45.0328 144.368 45.8859 142.395 47.529C142.342 47.5726 142.287 47.6199 142.234 47.6653C142.133 47.7524 142.035 47.8414 141.939 47.9323C140.114 49.6284 139.07 51.9107 139.025 54.3019L139.014 54.7089L138.562 74.1584L137.289 91.2259L135.535 114.737L136.834 114.796L142.018 115.034L142.647 115.062L144.139 109.28L145.934 102.322L146.594 99.7654L148.641 91.8356L149.596 88.1301L150.18 85.8675L150.418 84.9435L151.577 80.4522C151.604 80.3576 154.272 70.6309 157.348 69.0045C158.495 68.3986 158.909 68.0464 158.876 67.7074Z" fill="#E6E6E6"/>
<path d="M193.386 125.027C192.738 124.452 192.358 123.666 192.328 122.836C192.298 122.006 192.619 121.198 193.224 120.584C193.349 120.461 193.485 120.347 193.63 120.245L189.975 109.65L195.14 106.045L198.449 121.059C198.862 121.648 199.052 122.347 198.989 123.047C198.927 123.746 198.615 124.407 198.104 124.926C197.81 125.219 197.456 125.455 197.063 125.621C196.67 125.788 196.245 125.881 195.813 125.896C195.381 125.91 194.95 125.846 194.545 125.707C194.14 125.568 193.768 125.357 193.451 125.085C193.429 125.066 193.407 125.047 193.386 125.027Z" fill="#A0616A"/>
<path d="M195.911 102.037C195.911 102.037 191.883 88.9398 193.111 87.5219C194.34 86.104 190.711 85.8271 192.275 83.1864C193.839 80.5458 191.68 80.1041 191.68 80.1041L190.509 74.0327L188.415 59.1196L188.352 58.6761L187.743 54.3374C187.573 53.0982 187.134 51.9034 186.453 50.8244C185.772 49.7455 184.862 48.8045 183.778 48.0579C183.723 48.0187 183.666 47.9811 183.61 47.9435C183.352 47.772 183.089 47.6132 182.82 47.4669C180.81 46.3713 178.45 45.957 176.145 46.2954C171.803 46.9203 173.154 48.4166 172.45 52.4253C171.306 58.9432 171.009 62.6722 171.567 63.5147C171.755 63.7984 171.952 64.0698 172.141 64.3304C173.11 65.6753 173.811 66.6456 172.45 67.7795C171.908 68.1939 171.305 68.535 170.659 68.7925C170.019 69.0786 169.556 69.2839 169.563 69.6357C169.57 69.9764 170.022 70.2841 171.232 70.7721C172.699 71.3653 174.275 73.6079 175.565 75.8989C176.589 77.7455 177.502 79.6427 178.3 81.582L189.391 110.406L191.2 115.107L191.824 115.015L196.949 114.265L198.234 114.077L195.911 102.037Z" fill="#E6E6E6"/>
<path d="M162.671 37.1454C169.146 37.1454 174.395 32.2951 174.395 26.3119C174.395 20.3287 169.146 15.4784 162.671 15.4784C156.196 15.4784 150.947 20.3287 150.947 26.3119C150.947 32.2951 156.196 37.1454 162.671 37.1454Z" fill="#A0616A"/>
<path d="M145.085 20.3332C143.301 14.3203 157.696 9.16415 161.476 14.0063C162.001 13.3179 163.944 12.8998 164.835 13.1109C165.727 13.3221 166.476 13.85 167.207 14.3611C168.213 15.0749 169.255 15.814 169.872 16.8403C170.494 17.8624 170.59 19.2562 169.753 20.1431C169.091 20.8484 167.134 21.3046 166.138 21.4904C165.443 21.6213 164.858 21.7269 164.355 21.8029C163.899 21.1949 163.688 20.4578 163.761 19.7207C163.423 19.9317 163.139 20.2092 162.93 20.5334C162.722 20.8576 162.593 21.2205 162.554 21.596C162.541 21.7523 168.172 40.8975 168.172 40.8975C167.495 41.2533 166.784 41.5488 166.046 41.7802C164.588 39.7208 163.471 37.4715 162.733 35.107C162.563 36.6881 162.584 38.2818 162.797 39.8585C162.91 40.7426 163.071 41.6208 163.281 42.4897C156.59 43.8243 146.525 43.3851 142.147 37.7087C142.146 37.6852 142.145 37.6617 142.144 37.6382C142.141 37.4141 142.053 37.1982 141.897 37.0272C141.74 36.8563 141.523 36.7411 141.285 36.7013C141.046 36.6614 140.8 36.6995 140.588 36.809C140.377 36.9185 140.213 37.0926 140.125 37.3014C140.019 37.5518 139.921 37.7686 139.834 37.941C138.559 33.7259 140.209 28.8477 145.085 20.3332Z" fill="#2F2E41"/>
<path d="M86.9426 57.7677C86.695 57.7782 86.4499 57.7181 86.2405 57.5956C86.0311 57.4731 85.8675 57.2941 85.7719 57.0828C85.6762 56.8715 85.6532 56.6381 85.7059 56.4143C85.7586 56.1905 85.8845 55.9871 86.0665 55.8317C86.097 55.7197 86.1189 55.6393 86.1493 55.5274C86.1384 55.503 86.1275 55.4787 86.1164 55.4543C85.0036 53.0023 81.232 53.0192 80.1286 55.4749C79.1492 57.6545 77.9024 59.8377 77.5954 62.1423C77.4601 63.1609 77.5172 64.1935 77.7639 65.1942C75.4637 60.5576 74.2693 55.5183 74.2616 50.4178C74.2611 49.1379 74.3381 47.859 74.4921 46.587C74.6194 45.5442 74.796 44.5089 75.022 43.481C76.2548 37.9037 78.9018 32.6762 82.7456 28.2278C84.606 27.2898 86.1105 25.8474 87.0564 24.095C87.3991 23.465 87.6413 22.7925 87.7754 22.0985C87.5656 22.1239 86.9842 19.1705 87.1424 18.9893C86.85 18.5792 86.3265 18.3754 86.0071 17.9752C84.4185 15.985 82.2299 16.3325 81.0873 19.037C78.6466 20.1753 78.6229 22.0631 80.1206 23.8788C81.0734 25.0339 81.2043 26.5969 82.0403 27.8335C81.9543 27.9353 81.8648 28.0338 81.7788 28.1356C80.2066 30.0037 78.8362 32.0098 77.6875 34.125C78.0125 31.7791 77.5327 28.9528 76.7146 27.131C75.7834 25.0552 74.0381 23.307 72.501 21.5124C70.6548 19.357 66.869 20.2977 66.5438 23.0301C66.5406 23.0565 66.5375 23.083 66.5345 23.1094C66.7628 23.2284 66.9863 23.3547 67.205 23.4884C67.4797 23.658 67.6925 23.9003 67.8156 24.1836C67.9387 24.4668 67.9664 24.7779 67.8949 25.0759C67.8234 25.3739 67.6562 25.6451 67.4151 25.8538C67.1741 26.0625 66.8704 26.1991 66.5439 26.2456L66.5105 26.2504C66.5918 27.0107 66.7356 27.7642 66.9405 28.5043C64.9687 35.5507 69.2257 38.1171 75.3041 38.2324C75.4382 38.2959 75.569 38.3595 75.7032 38.4199C74.549 41.4423 73.825 44.5906 73.5495 47.7855C73.3935 49.6704 73.4027 51.5639 73.577 53.4475L73.5667 53.3807C73.1263 51.2862 71.9172 49.3964 70.1435 48.0303C67.5092 46.0306 63.7873 45.2943 60.9454 43.6869C59.5773 42.9132 57.8243 43.9131 58.063 45.3787C58.0668 45.4021 58.0707 45.4255 58.0746 45.4489C58.4983 45.6083 58.9108 45.792 59.3097 45.9988C59.538 46.1179 59.7615 46.2442 59.9802 46.3778C60.2548 46.5474 60.4677 46.7897 60.5908 47.073C60.7139 47.3563 60.7415 47.6673 60.6701 47.9653C60.5986 48.2634 60.4314 48.5345 60.1903 48.7432C59.9493 48.952 59.6456 49.0885 59.3191 49.135L59.2856 49.1398C59.2616 49.143 59.2409 49.1462 59.2169 49.1494C59.9407 50.7465 60.9567 52.2165 62.2203 53.4951C63.4532 59.6463 68.7486 60.2299 74.413 58.4386H74.4165C75.038 60.9342 75.9384 63.3634 77.1034 65.6869H86.702C86.7365 65.5884 86.7674 65.4867 86.7984 65.3881C85.9099 65.4397 85.0179 65.3906 84.1424 65.2419C84.8546 64.4344 85.5667 63.6205 86.2789 62.813C86.2948 62.798 86.3097 62.782 86.3236 62.7654C86.6848 62.3521 87.0495 61.942 87.4108 61.5287L87.411 61.5282C87.4302 60.2614 87.2729 58.9975 86.9429 57.7678L86.9426 57.7677Z" fill="#F2F2F2"/>
<path d="M42.1552 13.1618C41.9373 13.6309 35.22 13.5807 34.9124 13.9984C32.5404 17.2234 41.091 30.9452 38.719 34.1744L38.3886 34.5384C39.1624 34.2088 39.9057 33.8213 40.6112 33.3797C40.6746 32.0579 40.7379 30.7319 40.8058 29.4101C41.5163 30.2499 42.0897 31.1815 42.5079 32.175C43.0601 31.8153 43.5132 31.1484 45.8803 29.8367C46.8386 28.864 47.9434 28.0236 49.1606 27.3415L42.1552 13.1618Z" fill="#2F2E41"/>
<path d="M47.0327 39.5929C46.2915 39.1467 45.4457 38.8702 44.5657 38.7865C43.6857 38.7028 42.7967 38.8143 41.9726 39.1116C41.1486 39.4089 40.4131 39.8835 39.8272 40.4961C39.2414 41.1087 38.8221 41.8415 38.6042 42.6338L28.3963 67.2112L10.8502 58.0064C10.7731 56.9484 10.3355 55.9401 9.59991 55.1261C8.86437 54.3121 7.86876 53.7343 6.75588 53.4755C5.64299 53.2167 4.46999 53.2903 3.40514 53.6856C2.34028 54.0809 1.43826 54.7777 0.828456 55.6761C0.218651 56.5744 -0.0676136 57.6281 0.010721 58.686C0.0890555 59.744 0.527965 60.7518 1.2645 61.565C2.00103 62.3782 2.99734 62.955 4.11055 63.2126C5.22375 63.4702 6.39665 63.3955 7.46103 62.999C11.1561 66.6432 27.1755 81.5843 33.8075 75.7465C39.382 70.8395 47.4266 51.8217 49.3631 45.2545C49.6733 44.2044 49.6148 43.0904 49.196 42.0729C48.7772 41.0555 48.0198 40.1871 47.0327 39.5929Z" fill="#FFB6B6"/>
<path d="M27.8652 76.7764L31.0865 90.2303L54.6417 92.1991L56.8064 80.4844L27.8652 76.7764Z" fill="#FFB6B6"/>
<path d="M63.8457 111.277C63.8349 111.47 63.822 111.661 63.807 111.854C63.581 114.642 63.3228 117.857 63.0431 121.38C62.602 126.971 62.1092 133.338 61.6121 139.999H12.2051L21.7871 113.386C21.7871 113.386 25.656 111.417 23.6863 108.111C21.7166 104.804 25.5923 107.439 25.6284 102.717C25.6644 97.9945 29.1375 92.9706 29.1375 92.9706L29.7077 85.8204L30.0326 85.8264L55.7442 86.2221L56.2133 86.23L57.003 92.3681C61.7979 97.6405 64.2441 104.4 63.8457 111.277Z" fill="#2F2E41"/>
<path d="M42.9784 26.5932L54.7029 26.0351L60.1487 33.9865C60.1487 33.9865 70.3949 35.5694 69.6847 46.7264C68.9745 57.8833 57.218 67.6736 57.218 67.6736L57.7206 66.0815L56.8478 68.386L56.9597 69.68L58.1504 71.0503L58.273 72.4676L57.218 74.7099C57.3552 74.913 57.428 75.1477 57.4282 75.3872C57.4283 75.6267 57.3559 75.8614 57.219 76.0647C57.0821 76.2681 56.8863 76.4319 56.6537 76.5376C56.4212 76.6434 56.1612 76.6867 55.9034 76.6629L38.9623 75.0941C38.5766 74.1136 38.2672 72.9405 36.7211 74.8934L35.1252 74.7505L28.4912 74.1566L28.1007 72.8422C27.8788 72.0954 27.8443 71.3116 27.9996 70.5505C28.155 69.7895 28.4961 69.0712 28.9972 68.4503C28.4209 66.7829 28.5719 64.9736 29.4178 63.4075L29.4496 63.3488L30.1541 62.8062C30.1541 62.8062 22.4466 52.1062 31.2945 44.0471L34.8457 38.4686L38.8191 33.989L42.9784 26.5932Z" fill="#900710"/>
<path d="M45.4853 28.3789C51.6256 28.3789 56.6034 23.7793 56.6034 18.1053C56.6034 12.4313 51.6256 7.8316 45.4853 7.8316C39.3449 7.8316 34.3672 12.4313 34.3672 18.1053C34.3672 23.7793 39.3449 28.3789 45.4853 28.3789Z" fill="#FFB6B6"/>
<path d="M53.9286 32.9053C53.0232 32.2062 52.393 31.2504 52.136 30.1864C51.9304 31.4783 51.9841 32.7942 52.2944 34.0681C51.6924 34.4864 51.1084 34.8838 50.5562 35.2435C50.138 34.25 49.5646 33.3185 48.8541 32.4786C48.7862 33.8004 48.7228 35.1264 48.6595 36.4482C47.954 36.8898 47.2107 37.2773 46.4368 37.6069L46.7673 37.243C49.1393 34.0137 43.001 28.0698 45.373 24.8447C46.0385 23.9412 43.0327 16.801 40.7422 16.4789C38.7052 16.1944 38.7912 16.7382 36.8175 17.1356C36.6126 16.3457 36.2944 15.5847 35.8714 14.8726C35.984 15.6661 35.9581 16.4711 35.7945 17.2569C35.0929 17.282 34.5408 16.8689 33.7937 16.7633C29.027 16.0899 29.5114 11.3255 30.8377 9.81548C32.1686 8.30963 36.5867 7.85787 38.6237 7.36845C38.8093 7.20115 39.2303 7.30572 39.4159 7.14676C43.3197 3.84537 48.5409 3.29864 53.2394 4.76189C58.2501 6.32233 61.3741 9.34249 62.9775 13.9984L63.4374 17.7243C63.85 18.9224 63.331 24.4966 62.9775 25.7106C61.6037 30.4298 58.6777 28.074 53.9286 32.9053Z" fill="#2F2E41"/>
<path d="M70.1403 81.5793L69.7026 50.0788C69.6798 48.7443 69.0901 47.4716 68.0607 46.5353C67.0314 45.599 65.6449 45.0743 64.2005 45.0743C63.4533 45.0743 62.7139 45.2149 62.0274 45.4876C61.3409 45.7602 60.7217 46.1592 60.2076 46.6602C59.6934 47.1613 59.295 47.7538 59.0368 48.4017C58.7785 49.0496 58.6658 49.7393 58.7054 50.4288L60.2456 83.1372L60.2749 103.048C59.3671 103.404 58.5998 104.01 58.0773 104.782C57.5548 105.555 57.3024 106.458 57.3543 107.367C57.4063 108.277 57.7601 109.15 58.3678 109.868C58.9754 110.586 59.8074 111.113 60.7506 111.378C61.6939 111.644 62.7027 111.635 63.6401 111.352C64.5774 111.069 65.3978 110.526 65.9899 109.798C66.5819 109.069 66.9168 108.19 66.9491 107.279C66.9814 106.368 66.7095 105.471 66.1704 104.708L70.1403 81.5793Z" fill="#FFB6B6"/>
<path d="M127.522 122.333C127.522 122.333 126.845 133.584 126.534 140H103.229C102.749 134.161 102.588 129.871 102.588 129.871L101.312 140H77.7554L76.2949 121.241L83.3525 105.075C83.3525 105.075 121.599 102.624 125.147 105.733C128.693 108.84 127.522 122.333 127.522 122.333Z" fill="#2F2E41"/>
<path d="M106.914 27.6939C113.944 27.6939 119.644 22.4273 119.644 15.9307C119.644 9.43405 113.944 4.16748 106.914 4.16748C99.883 4.16748 94.1836 9.43405 94.1836 15.9307C94.1836 22.4273 99.883 27.6939 106.914 27.6939Z" fill="#FFB6B6"/>
<path d="M121.75 12.1083C120.443 12.6593 119.595 16.6494 118.568 15.7218C117.54 14.7942 117.609 13.587 116.223 13.2447C115.104 12.967 113.9 13.2843 112.879 13.7848C112.697 13.8731 112.52 13.9691 112.348 14.0646C112.235 13.9944 112.121 13.9284 112 13.8674C111.087 13.416 110.022 13.3052 109.023 13.558C109.812 13.8022 110.498 14.2695 110.984 14.8937C110.643 15.1053 110.297 15.3173 109.943 15.5052C106.986 17.0818 102.779 13.6536 99.667 12.3657C101.616 15.7459 100.656 17.1457 98.9639 20.6416L98.9055 20.8406C99.0016 19.9645 96.0676 19.3115 96.2377 20.5449C96.3585 21.4206 97.1786 23.367 97.638 24.1401C94.366 20.6442 92.1301 16.3661 92.6019 11.9528C92.7046 11.0258 92.6736 10.0476 93.1911 9.24294C93.7091 8.44244 94.7891 7.88069 95.7446 8.18595C95.6636 6.77852 95.9969 5.37713 96.709 4.13076C97.4211 2.88439 98.4854 1.83963 99.7888 1.10754C101.092 0.375462 102.586 -0.0165751 104.111 -0.0268907C105.636 -0.0372062 107.136 0.334588 108.451 1.04896C109.673 1.7114 110.692 2.64831 111.812 3.45646C112.932 4.26461 114.223 4.96905 115.643 5.03576C116.543 5.07591 117.524 4.8727 118.298 5.3038C119.194 5.80402 119.347 6.85132 119.482 7.85909C118.682 7.93193 117.925 8.22339 117.305 8.69623C118.132 8.61825 118.965 8.78332 119.685 9.16795C119.699 9.17366 119.712 9.18052 119.724 9.18842C120.198 10.8539 120.15 11.2231 121.75 12.1083Z" fill="#2F2E41"/>
<path d="M77.8105 110.766C88.6512 99.0404 84.9896 84.1265 80.687 69.0717L81.5057 46.8312C81.5458 45.7402 81.8695 44.6742 82.4494 43.7231C83.0292 42.7721 83.8482 41.9639 84.8372 41.3669L95.9041 34.686L100.212 28.9311L112.085 30.0283L118.669 36.4625L125.957 41.6038C127.787 42.8947 129.18 44.6422 129.97 46.6402C130.761 48.6382 130.917 50.8034 130.42 52.8806L123.446 82.026C123.446 82.026 126.363 97.1352 124.583 98.8039C122.803 100.473 118.216 98.8047 121.853 100.678C126.218 102.926 130.187 102.511 127.978 104.552C125.769 106.593 128.565 109.431 128.565 109.431L77.8105 110.766Z" fill="#900710"/>
<path d="M82.4465 127.807L84.2538 115.909L77.0425 114.007L75.6161 126.649C75.0193 127.154 74.5869 127.804 74.3677 128.524C74.1484 129.244 74.151 130.007 74.375 130.726C74.599 131.445 75.0356 132.092 75.6357 132.594C76.2358 133.097 76.9757 133.434 77.7721 133.569C78.5685 133.704 79.3898 133.631 80.1439 133.359C80.8979 133.086 81.5546 132.624 82.0403 132.026C82.5259 131.427 82.8213 130.715 82.893 129.97C82.9648 129.224 82.8102 128.476 82.4465 127.807Z" fill="#FFB6B6"/>
<path d="M96.1756 36.8307C96.1756 36.8307 75.649 43.004 75.1596 47.5209C74.6701 52.0379 74.8324 54.803 72.666 72.8779L72.7801 121.567C72.7801 121.567 86.542 124.289 85.1306 121.378C83.7193 118.467 84.2117 117.098 84.2117 117.098C84.2117 117.098 87.1623 116.022 86.4237 112.604C85.6851 109.186 89.389 92.2474 89.389 92.2474L91.7268 61.8691L96.1756 36.8307Z" fill="#900710"/>
<path d="M121.485 127.177L120.523 115.195L127.854 113.733L128.383 126.434C128.943 126.974 129.328 127.649 129.496 128.381C129.664 129.112 129.607 129.873 129.333 130.577C129.059 131.281 128.577 131.9 127.943 132.365C127.308 132.83 126.546 133.122 125.742 133.209C124.938 133.296 124.123 133.173 123.39 132.856C122.657 132.538 122.034 132.038 121.592 131.411C121.15 130.784 120.906 130.056 120.887 129.308C120.868 128.56 121.075 127.822 121.485 127.177Z" fill="#FFB6B6"/>
<path d="M114.221 35.5659C114.221 35.5659 134.267 42.9658 134.436 47.5027C134.604 52.0395 134.247 54.7889 135.13 72.956L131.572 121.534C131.572 121.534 117.647 123.419 119.261 120.6C120.876 117.78 120.481 116.384 120.481 116.384C120.481 116.384 117.613 115.132 118.592 111.766C119.571 108.4 117.073 91.274 117.073 91.274L116.889 60.8195L114.221 35.5659Z" fill="#900710"/>
</g>
<defs>
<clipPath id="clip0_334_3">
<rect width="199" height="140" fill="white"/>
</clipPath>
</defs>
</svg>
