<svg width="34" height="34" viewBox="0 0 34 34" fill="none" xmlns="http://www.w3.org/2000/svg">
<path d="M17.0007 31.1668C24.8247 31.1668 31.1673 24.8242 31.1673 17.0002C31.1673 9.17613 24.8247 2.8335 17.0007 2.8335C9.17662 2.8335 2.83398 9.17613 2.83398 17.0002C2.83398 24.8242 9.17662 31.1668 17.0007 31.1668Z" stroke="#555151" stroke-width="2" stroke-linecap="round" stroke-linejoin="round"/>
<path d="M17 18.4165C19.3472 18.4165 21.25 16.5137 21.25 14.1665C21.25 11.8193 19.3472 9.9165 17 9.9165C14.6528 9.9165 12.75 11.8193 12.75 14.1665C12.75 16.5137 14.6528 18.4165 17 18.4165Z" stroke="#555151" stroke-width="2" stroke-linecap="round" stroke-linejoin="round"/>
<path d="M9.91602 29.2713V26.9168C9.91602 26.1654 10.2145 25.4447 10.7459 24.9134C11.2772 24.382 11.9979 24.0835 12.7493 24.0835H21.2493C22.0008 24.0835 22.7215 24.382 23.2528 24.9134C23.7842 25.4447 24.0827 26.1654 24.0827 26.9168V29.2713" stroke="#555151" stroke-width="2" stroke-linecap="round" stroke-linejoin="round"/>
</svg>
