<svg version="1.1" id="Layer_1" xmlns="http://www.w3.org/2000/svg" xmlns:xlink="http://www.w3.org/1999/xlink" x="0px" y="0px"
	 width="100%" viewBox="0 0 64 64" enable-background="new 0 0 64 64" xml:space="preserve">
<path fill="#251F20" opacity="1.000000" stroke="none" 
	d="
M25.000000,1.000000 
	C30.022093,1.000000 35.044186,1.000000 40.672829,1.308862 
	C42.514923,2.418571 43.661911,3.434956 45.000519,3.984959 
	C53.125248,7.323212 58.743374,13.057711 62.107040,21.155504 
	C62.702919,22.590044 64.017372,23.726107 65.000000,25.000000 
	C65.000000,30.022093 65.000000,35.044186 64.691498,40.672581 
	C62.248173,44.877605 60.113350,48.476322 57.834290,51.769203 
	C44.437939,34.594761 19.794798,34.900284 7.805807,51.826729 
	C5.374695,48.049767 3.187348,44.524883 1.000000,41.000000 
	C1.000000,35.977909 1.000000,30.955816 1.308880,25.327187 
	C2.488850,23.332315 3.542722,22.025074 4.200651,20.542166 
	C7.817042,12.391182 13.554645,6.534053 22.012087,3.398086 
	C23.148247,2.976804 24.010767,1.817533 25.000000,1.000000 
M44.902996,24.190874 
	C44.755722,22.716467 44.818996,21.182915 44.424362,19.777988 
	C42.799969,13.995089 37.300858,10.364409 31.541105,11.123269 
	C25.927940,11.862814 21.489782,16.531134 21.066994,22.140566 
	C20.632812,27.901157 24.591257,33.235428 30.353334,34.654537 
	C36.773861,36.235813 42.249989,32.571663 44.902996,24.190874 
z"/>
<path fill="#C72732" opacity="1.000000" stroke="none" 
	d="
M8.049572,52.078804 
	C19.794798,34.900284 44.437939,34.594761 57.635628,52.025715 
	C52.486958,56.011372 47.371906,59.404610 42.324940,62.896259 
	C41.698151,63.329895 41.432823,64.285995 41.000000,65.000000 
	C35.977909,65.000000 30.955816,65.000000 25.788935,64.708267 
	C19.779289,60.303963 13.914431,56.191383 8.049572,52.078804 
z"/>
<path fill="#000000" opacity="1.000000" stroke="none" 
	d="
M65.000000,24.531309 
	C64.017372,23.726107 62.702919,22.590044 62.107040,21.155504 
	C58.743374,13.057711 53.125248,7.323212 45.000519,3.984959 
	C43.661911,3.434956 42.514923,2.418571 41.139690,1.308862 
	C48.926334,1.000000 56.852673,1.000000 65.000000,1.000000 
	C65.000000,8.686132 65.000000,16.374374 65.000000,24.531309 
z"/>
<path fill="#000000" opacity="1.000000" stroke="none" 
	d="
M7.805807,51.826729 
	C13.914431,56.191383 19.779289,60.303963 25.322073,64.708267 
	C17.073666,65.000000 9.147330,65.000000 1.000000,65.000000 
	C1.000000,57.313869 1.000000,49.625626 1.000000,41.468693 
	C3.187348,44.524883 5.374695,48.049767 7.805807,51.826729 
z"/>
<path fill="#000000" opacity="1.000000" stroke="none" 
	d="
M41.468697,65.000000 
	C41.432823,64.285995 41.698151,63.329895 42.324940,62.896259 
	C47.371906,59.404610 52.486958,56.011372 57.779869,52.331554 
	C60.113350,48.476322 62.248173,44.877605 64.691498,41.139442 
	C65.000000,48.926334 65.000000,56.852673 65.000000,65.000000 
	C57.313869,65.000000 49.625626,65.000000 41.468697,65.000000 
z"/>
<path fill="#000000" opacity="1.000000" stroke="none" 
	d="
M24.531307,1.000000 
	C24.010767,1.817533 23.148247,2.976804 22.012087,3.398086 
	C13.554645,6.534053 7.817042,12.391182 4.200651,20.542166 
	C3.542722,22.025074 2.488850,23.332315 1.308880,24.860325 
	C1.000000,17.073662 1.000000,9.147325 1.000000,1.000000 
	C8.686132,1.000000 16.374374,1.000000 24.531307,1.000000 
z"/>
<path fill="#C82732" opacity="1.000000" stroke="none" 
	d="
M44.852142,24.589046 
	C42.249989,32.571663 36.773861,36.235813 30.353334,34.654537 
	C24.591257,33.235428 20.632812,27.901157 21.066994,22.140566 
	C21.489782,16.531134 25.927940,11.862814 31.541105,11.123269 
	C37.300858,10.364409 42.799969,13.995089 44.424362,19.777988 
	C44.818996,21.182915 44.755722,22.716467 44.852142,24.589046 
z"/>
</svg>