<svg width="56" height="56" viewBox="0 0 56 56" fill="none" xmlns="http://www.w3.org/2000/svg">
<path d="M4.66602 49V7H27.9993V16.3333H51.3327V49H4.66602ZM9.33268 44.3333H13.9993V39.6667H9.33268V44.3333ZM9.33268 35H13.9993V30.3333H9.33268V35ZM9.33268 25.6667H13.9993V21H9.33268V25.6667ZM9.33268 16.3333H13.9993V11.6667H9.33268V16.3333ZM18.666 44.3333H23.3327V39.6667H18.666V44.3333ZM18.666 35H23.3327V30.3333H18.666V35ZM18.666 25.6667H23.3327V21H18.666V25.6667ZM18.666 16.3333H23.3327V11.6667H18.666V16.3333ZM27.9993 44.3333H46.666V21H27.9993V25.6667H32.666V30.3333H27.9993V35H32.666V39.6667H27.9993V44.3333ZM37.3327 30.3333V25.6667H41.9993V30.3333H37.3327ZM37.3327 39.6667V35H41.9993V39.6667H37.3327Z" fill="black"/>
</svg>
