<svg width="56" height="56" viewBox="0 0 56 56" fill="none" xmlns="http://www.w3.org/2000/svg">
<g clip-path="url(#clip0_97_207)">
<path d="M4.66667 46.6667C3.38333 46.6667 2.28472 46.2097 1.37083 45.2958C0.456944 44.3819 0 43.2833 0 42H9.33333C8.05 42 6.95139 41.5431 6.0375 40.6292C5.12361 39.7153 4.66667 38.6167 4.66667 37.3333V11.6667C4.66667 10.3833 5.12361 9.28472 6.0375 8.37083C6.95139 7.45694 8.05 7 9.33333 7H46.6667C47.95 7 49.0486 7.45694 49.9625 8.37083C50.8764 9.28472 51.3333 10.3833 51.3333 11.6667V37.3333C51.3333 38.6167 50.8764 39.7153 49.9625 40.6292C49.0486 41.5431 47.95 42 46.6667 42H56C56 43.2833 55.5431 44.3819 54.6292 45.2958C53.7153 46.2097 52.6167 46.6667 51.3333 46.6667H4.66667ZM28 44.3333C28.6611 44.3333 29.2153 44.1097 29.6625 43.6625C30.1097 43.2153 30.3333 42.6611 30.3333 42C30.3333 41.3389 30.1097 40.7847 29.6625 40.3375C29.2153 39.8903 28.6611 39.6667 28 39.6667C27.3389 39.6667 26.7847 39.8903 26.3375 40.3375C25.8903 40.7847 25.6667 41.3389 25.6667 42C25.6667 42.6611 25.8903 43.2153 26.3375 43.6625C26.7847 44.1097 27.3389 44.3333 28 44.3333ZM9.33333 37.3333H46.6667V11.6667H9.33333V37.3333Z" fill="black"/>
</g>
<defs>
<clipPath id="clip0_97_207">
<rect width="56" height="56" fill="white"/>
</clipPath>
</defs>
</svg>
