<svg width="49" height="50" viewBox="0 0 49 50" fill="none" xmlns="http://www.w3.org/2000/svg">
<path d="M34.0339 4.16699H14.0139C8.48554 4.16699 4.00391 8.83069 4.00391 14.5837V35.417C4.00391 41.17 8.48554 45.8337 14.0139 45.8337H34.0339C39.5623 45.8337 44.0439 41.17 44.0439 35.417V14.5837C44.0439 8.83069 39.5623 4.16699 34.0339 4.16699Z" stroke="white" stroke-width="2" stroke-linecap="round" stroke-linejoin="round"/>
<path d="M32.0319 23.6872C32.279 25.421 31.9944 27.1918 31.2186 28.7476C30.4429 30.3034 29.2154 31.5651 27.7109 32.3531C26.2063 33.1412 24.5013 33.4155 22.8383 33.137C21.1753 32.8585 19.6391 32.0415 18.448 30.8021C17.257 29.5626 16.4718 27.964 16.2043 26.2334C15.9367 24.5029 16.2002 22.7286 16.9575 21.1629C17.7148 19.5973 18.9272 18.3199 20.4223 17.5127C21.9174 16.7054 23.619 16.4092 25.2852 16.6663C26.9847 16.9286 28.5582 17.7527 29.7731 19.017C30.988 20.2812 31.7799 21.9186 32.0319 23.6872Z" stroke="white" stroke-width="2" stroke-linecap="round" stroke-linejoin="round"/>
<path d="M35.0352 13.542H35.0568" stroke="white" stroke-width="2" stroke-linecap="round" stroke-linejoin="round"/>
</svg>
