<svg width="68" height="68" viewBox="0 0 68 68" fill="none" xmlns="http://www.w3.org/2000/svg">
<path d="M34.0001 65.3663C51.3233 65.3663 65.3664 51.3231 65.3664 34C65.3664 16.6769 51.3233 2.63367 34.0001 2.63367C16.677 2.63367 2.63379 16.6769 2.63379 34C2.63379 51.3231 16.677 65.3663 34.0001 65.3663Z" fill="#66CB63"/>
<path d="M29.8918 46.5097C29.5421 46.5098 29.196 46.4402 28.8736 46.305C28.5511 46.1698 28.2589 45.9717 28.0139 45.7222L18.2959 35.8462C17.2767 34.8085 17.2898 33.1441 18.3275 32.1222C19.3652 31.1057 21.0322 31.1162 22.0514 32.1538L29.8154 40.0441L45.8779 22.3541C46.8601 21.277 48.5247 21.2007 49.5965 22.1751C50.6736 23.1522 50.7526 24.8166 49.7755 25.8964L31.8406 45.6484C31.5999 45.9138 31.3076 46.1272 30.9816 46.2758C30.6556 46.4243 30.3027 46.5047 29.9445 46.5122C29.926 46.5097 29.9102 46.5097 29.8918 46.5097Z" fill="white"/>
</svg>
